name pl10_filtered_grf.mot
datacolumns 37
datarows 12
range 1.471000 1.476500
endheader
time	1_ground_force_vx	1_ground_force_vy	1_ground_force_vz	1_ground_force_px	1_ground_force_py	1_ground_force_pz	1_ground_torque_x	1_ground_torque_y	1_ground_torque_z	2_ground_force_vx	2_ground_force_vy	2_ground_force_vz	2_ground_force_px	2_ground_force_py	2_ground_force_pz	2_ground_torque_x	2_ground_torque_y	2_ground_torque_z	3_ground_force_vx	3_ground_force_vy	3_ground_force_vz	3_ground_force_px	3_ground_force_py	3_ground_force_pz	3_ground_torque_x	3_ground_torque_y	3_ground_torque_z	4_ground_force_vx	4_ground_force_vy	4_ground_force_vz	4_ground_force_px	4_ground_force_py	4_ground_force_pz	4_ground_torque_x	4_ground_torque_y	4_ground_torque_z
            1.471000	          -10.855758	          311.402976	           -4.756933	            0.126324	            0.000000	            0.219776	           -0.258729	            7.421759	           -0.113373	            5.424297	          263.694581	            5.523121	           -0.116726	            0.000000	            0.197082	            0.002269	            0.110303	            0.002310	           21.439998	            1.487146	            0.705409	            0.376090	            1.311454	            1.914089	           -0.107589	           -0.007463	           -0.003540	          -18.484870	           -0.669845	            2.096667	           -0.265192	            1.310041	            1.925077	            0.003537	            0.000128	           -0.000401
            1.471500	          -10.898495	          311.659028	           -4.787063	            0.126334	            0.000000	            0.219829	           -0.259547	            7.422128	           -0.114003	            5.539864	          264.028590	            5.485630	           -0.116799	            0.000000	            0.197160	            0.002476	            0.118021	            0.002452	           21.446395	            1.501162	            0.687184	            0.376097	            1.311456	            1.914087	           -0.107288	           -0.007510	           -0.003438	          -18.478161	           -0.666609	            2.107799	           -0.265187	            1.310042	            1.925075	            0.003689	            0.000133	           -0.000421
            1.472000	          -10.942123	          311.920191	           -4.817683	            0.126342	            0.000000	            0.219881	           -0.260380	            7.422493	           -0.114642	            5.655653	          264.368695	            5.449625	           -0.116873	            0.000000	            0.197238	            0.002684	            0.125453	            0.002586	           21.454936	            1.515753	            0.669039	            0.376103	            1.311457	            1.914085	           -0.106975	           -0.007558	           -0.003336	          -18.472624	           -0.662963	            2.116886	           -0.265181	            1.310043	            1.925074	            0.003863	            0.000139	           -0.000443
            1.472500	          -10.986564	          312.186473	           -4.848816	            0.126349	            0.000000	            0.219932	           -0.261228	            7.422870	           -0.115290	            5.771554	          264.714770	            5.415418	           -0.116948	            0.000000	            0.197318	            0.002891	            0.132618	            0.002713	           21.465686	            1.530799	            0.651033	            0.376109	            1.311459	            1.914083	           -0.106651	           -0.007606	           -0.003235	          -18.468349	           -0.658974	            2.123880	           -0.265176	            1.310044	            1.925072	            0.004057	            0.000145	           -0.000467
            1.473000	          -11.031735	          312.457896	           -4.880483	            0.126356	            0.000000	            0.219982	           -0.262089	            7.423280	           -0.115949	            5.887470	          265.066677	            5.383319	           -0.117024	            0.000000	            0.197397	            0.003099	            0.139535	            0.002834	           21.478684	            1.546182	            0.633340	            0.376114	            1.311461	            1.914081	           -0.106317	           -0.007653	           -0.003135	          -18.465423	           -0.654720	            2.128644	           -0.265170	            1.310044	            1.925070	            0.004270	            0.000151	           -0.000492
            1.473500	          -11.077553	          312.734495	           -4.912711	            0.126361	            0.000000	            0.220031	           -0.262961	            7.423745	           -0.116619	            6.003313	          265.424271	            5.353627	           -0.117101	            0.000000	            0.197476	            0.003307	            0.146229	            0.002949	           21.493960	            1.561792	            0.615880	            0.376120	            1.311462	            1.914079	           -0.105975	           -0.007700	           -0.003037	          -18.463889	           -0.650273	            2.131275	           -0.265164	            1.310045	            1.925068	            0.004498	            0.000158	           -0.000519
            1.474000	          -11.123934	          313.016319	           -4.945523	            0.126366	            0.000000	            0.220080	           -0.263843	            7.424286	           -0.117301	            6.119004	          265.787398	            5.326634	           -0.117177	            0.000000	            0.197555	            0.003516	            0.152725	            0.003061	           21.511516	            1.577523	            0.598695	            0.376125	            1.311464	            1.914076	           -0.105628	           -0.007746	           -0.002940	          -18.463783	           -0.645717	            2.131779	           -0.265158	            1.310046	            1.925066	            0.004739	            0.000166	           -0.000547
            1.474500	          -11.170791	          313.303432	           -4.978942	            0.126371	            0.000000	            0.220128	           -0.264735	            7.424928	           -0.117995	            6.234469	          266.155898	            5.302616	           -0.117255	            0.000000	            0.197634	            0.003726	            0.159051	            0.003169	           21.531334	            1.593273	            0.581819	            0.376131	            1.311466	            1.914074	           -0.105275	           -0.007790	           -0.002845	          -18.465124	           -0.641137	            2.130178	           -0.265152	            1.310047	            1.925064	            0.004991	            0.000173	           -0.000576
            1.475000	          -11.218038	          313.595911	           -5.012988	            0.126374	            0.000000	            0.220176	           -0.265634	            7.425696	           -0.118703	            6.349645	          266.529604	            5.281835	           -0.117332	            0.000000	            0.197712	            0.003937	            0.165237	            0.003275	           21.553373	            1.608952	            0.565285	            0.376137	            1.311467	            1.914072	           -0.104920	           -0.007832	           -0.002752	          -18.467907	           -0.636620	            2.126515	           -0.265147	            1.310047	            1.925062	            0.005250	            0.000181	           -0.000604
            1.475500	          -11.265589	          313.893853	           -5.047679	            0.126378	            0.000000	            0.220224	           -0.266540	            7.426614	           -0.119426	            6.464469	          266.908349	            5.264536	           -0.117409	            0.000000	            0.197788	            0.004149	            0.171313	            0.003379	           21.577561	            1.624471	            0.549451	            0.376141	            1.311468	            1.914070	           -0.104565	           -0.007872	           -0.002663	          -18.472112	           -0.632256	            2.120818	           -0.265140	            1.310048	            1.925060	            0.005512	            0.000189	           -0.000633
            1.476000	          -11.313357	          314.197368	           -5.083025	            0.126381	            0.000000	            0.220271	           -0.267451	            7.427707	           -0.120164	            6.578884	          267.291961	            5.250943	           -0.117487	            0.000000	            0.197864	            0.004364	            0.177307	            0.003483	           21.603817	            1.639754	            0.534015	            0.376146	            1.311470	            1.914068	           -0.104210	           -0.007910	           -0.002576	          -18.477693	           -0.628134	            2.113184	           -0.265134	            1.310048	            1.925057	            0.005776	            0.000196	           -0.000661
            1.476500	          -11.361258	          314.506582	           -5.119032	            0.126385	            0.000000	            0.220319	           -0.268366	            7.429000	           -0.120917	            6.692836	          267.680266	            5.241261	           -0.117564	            0.000000	            0.197938	            0.004582	            0.183249	            0.003588	           21.632031	            1.654731	            0.519004	            0.376151	            1.311471	            1.914065	           -0.103857	           -0.007945	           -0.002492	          -18.484587	           -0.624342	            2.103699	           -0.265128	            1.310049	            1.925055	            0.006037	            0.000204	           -0.000687
